<?xml version="1.0" encoding="UTF-8" standalone="no"?>
<!-- Created with Inkscape (http://www.inkscape.org/) -->

<svg
   xmlns:dc="http://purl.org/dc/elements/1.1/"
   xmlns:cc="http://creativecommons.org/ns#"
   xmlns:rdf="http://www.w3.org/1999/02/22-rdf-syntax-ns#"
   xmlns:svg="http://www.w3.org/2000/svg"
   xmlns="http://www.w3.org/2000/svg"
   xmlns:xlink="http://www.w3.org/1999/xlink"
   xmlns:sodipodi="http://sodipodi.sourceforge.net/DTD/sodipodi-0.dtd"
   xmlns:inkscape="http://www.inkscape.org/namespaces/inkscape"
   version="1.1"
   id="svg4593"
   width="250"
   height="150"
   viewBox="0 0 250 150"
   sodipodi:docname="krajek_logo.svg"
   inkscape:version="0.92.2 (5c3e80d, 2017-08-06)">
  <metadata
     id="metadata4599">
    <rdf:RDF>
      <cc:Work
         rdf:about="">
        <dc:format>image/svg+xml</dc:format>
        <dc:type
           rdf:resource="http://purl.org/dc/dcmitype/StillImage" />
        <dc:title></dc:title>
      </cc:Work>
    </rdf:RDF>
  </metadata>
  <defs
     id="defs4597">
    <clipPath
       clipPathUnits="userSpaceOnUse"
       id="clipPath1429">
      <use
         x="0"
         y="0"
         xlink:href="#g1425"
         id="use1431"
         width="100%"
         height="100%"
         transform="translate(4.1356781,-43.230219)" />
    </clipPath>
  </defs>
  <sodipodi:namedview
     pagecolor="#ffffff"
     bordercolor="#666666"
     borderopacity="1"
     objecttolerance="10"
     gridtolerance="10"
     guidetolerance="10"
     inkscape:pageopacity="0"
     inkscape:pageshadow="2"
     inkscape:window-width="1680"
     inkscape:window-height="987"
     id="namedview4595"
     showgrid="false"
     inkscape:zoom="2.8284271"
     inkscape:cx="123.35424"
     inkscape:cy="61.271021"
     inkscape:window-x="-8"
     inkscape:window-y="-8"
     inkscape:window-maximized="1"
     inkscape:current-layer="svg4593"
     inkscape:pagecheckerboard="true"
     fit-margin-top="0"
     fit-margin-left="0"
     fit-margin-right="0"
     fit-margin-bottom="0"
     inkscape:showpageshadow="false"
     showborder="true" />
  <g
     id="g1425"
     inkscape:label="Clip"
     transform="matrix(1.4658068,0,0,1.4253089,-6.062105,-2.1799151)">
    <path
       style="fill:#0055aa;fill-opacity:1;stroke-width:1.24206626"
       d="m 129.59391,105.36081 c -3.13749,-0.87974 -14.21217,-5.61753 -8.86199,-8.417536 7.86677,2.556126 16.5916,4.001536 24.47707,0.533469 11.40936,-4.031961 18.99575,-15.961254 17.91952,-27.982172 0.16919,-14.937731 -13.59507,-27.78546 -28.37563,-27.386149 -8.60772,-0.87993 -15.19901,5.709291 -22.92609,7.462748 -1.99389,2.942697 -5.84259,7.463123 -5.76445,0.805684 C 108.82261,40.548539 97.657404,42.287801 91.683759,39.715997 87.42312,38.856062 79.070952,35.158295 77.198956,36.360624 82.855517,41.963163 89.700872,46.35486 94.81606,52.47954 90.589657,59.586877 82.847603,48.620755 77.995012,46.50537 71.070106,41.115308 63.605474,36.178541 57.593571,29.772829 c 1.478681,-8.984496 10.405486,-4.169636 15.985765,-2.688435 11.072495,2.891183 21.890848,7.220566 33.291514,8.561887 5.66267,-5.114852 -11.379359,-4.046283 -6.46357,-9.178569 6.21064,0.17832 15.44311,-1.863736 19.83681,2.778134 -7.61097,0.808207 -10.75384,21.909623 -4.22492,14.77872 10.19492,-11.304846 28.21735,-13.083532 40.91764,-5.071267 16.69293,9.247797 22.76514,32.610865 13.23216,48.975816 -8.08778,13.440905 -24.99318,22.454835 -40.57506,17.431695 z m -104.333565,-3.467 C 16.497092,98.048785 9.6854187,90.068288 6.0605909,81.31783 -0.30697464,63.769011 9.6706547,41.800164 27.917101,36.525229 c 7.797666,-2.857682 16.245409,-0.634781 22.941873,3.85992 2.998847,1.940922 11.717725,7.781412 7.94272,10.723247 -5.639319,-3.861364 -11.623398,-8.414983 -18.92389,-7.966978 -14.954534,0.167123 -27.586681,14.934408 -25.401307,29.750817 1.120687,14.013734 14.814718,26.444853 29.1193,23.784799 3.189404,-0.676504 16.180505,-3.480794 8.48274,1.916433 -7.92061,4.905313 -17.944191,6.102493 -26.818192,3.300343 z M 47.914459,36.655849 c -1.184393,-4.799754 2.780874,-9.62222 4.380159,-14.216333 l 3.31592,-7.373176 c -3.090077,-3.117005 -7.043035,-5.6186247 -9.072825,-9.5988247 0.183778,-6.46650333 17.598049,-3.9193577 6.600033,0.1589594 5.604539,2.8282284 13.28072,7.5201263 7.5318,14.8073913 -3.602965,5.365859 -4.543733,15.565081 -11.564548,16.842257 z"
       id="path4603"
       inkscape:connector-curvature="0"
       sodipodi:nodetypes="cccccccccccccccccccccccccccccccccccccc" />
    <rect
       style="opacity:0;fill:#ffffff;fill-opacity:1"
       id="rect1435"
       width="135.5"
       height="28.5"
       x="23.5"
       y="56"
       ry="2.875" />
    <rect
       style="opacity:0;fill:#ffffff;fill-opacity:1"
       id="rect1441"
       width="135.5"
       height="28.5"
       x="23.5"
       y="56"
       ry="2.875" />
    <rect
       style="opacity:0;fill:#ffffff;fill-opacity:1"
       id="rect1443"
       width="135.5"
       height="28.5"
       x="23.5"
       y="56"
       ry="2.875" />
  </g>
  <text
     xml:space="preserve"
     style="font-style:normal;font-weight:normal;font-size:40px;line-height:1.25;font-family:sans-serif;letter-spacing:0px;word-spacing:0px;fill:#000000;fill-opacity:1;stroke:none"
     x="100.07485"
     y="53.850182"
     id="text5151"><tspan
       sodipodi:role="line"
       id="tspan5149"
       x="100.07485"
       y="89.240807" /></text>
  <text
     xml:space="preserve"
     style="font-style:italic;font-variant:normal;font-weight:bold;font-stretch:normal;font-size:32px;line-height:1.25;font-family:Archivo;-inkscape-font-specification:'Archivo, Bold Italic';font-variant-ligatures:normal;font-variant-caps:normal;font-variant-numeric:normal;font-feature-settings:normal;text-align:start;letter-spacing:0px;word-spacing:0px;writing-mode:lr-tb;text-anchor:start;fill:#0055aa;fill-opacity:1;stroke:none"
     x="34.627777"
     y="108.89873"
     id="text1394"><tspan
       sodipodi:role="line"
       id="tspan1392"
       x="34.627777"
       y="108.89873">KRAJEK.PL</tspan></text>
  <rect
     style="opacity:0;fill:#0055aa;fill-opacity:1"
     id="rect1396"
     width="135.5"
     height="28.5"
     x="15.475235"
     y="99.583771"
     ry="4.25" />
  <rect
     style="opacity:0;fill:#0055aa;fill-opacity:1"
     id="rect1398"
     width="26.75"
     height="5.75"
     x="87.975235"
     y="110.08377"
     ry="2.875" />
  <rect
     style="opacity:0;fill:#0055aa;fill-opacity:1"
     id="rect1400"
     width="135.5"
     height="28.5"
     x="15.475235"
     y="99.583771"
     ry="2.875" />
  <rect
     style="opacity:0;fill:#0055aa;fill-opacity:1"
     id="rect1402"
     width="135.5"
     height="28.5"
     x="15.475235"
     y="99.583771"
     ry="2.875" />
  <rect
     style="opacity:0;fill:#ffffff;fill-opacity:1"
     id="rect1404"
     width="135.5"
     height="28.5"
     x="15.475235"
     y="99.583771"
     ry="2.875" />
  <path
     style="opacity:0;fill:#ffffff;fill-opacity:1;stroke-width:0.25"
     d="m 40.118056,111.72034 c -0.863438,-0.86344 -0.03098,-3.59848 1.483006,-4.87242 0.998553,-0.84022 1.787417,-0.82855 2.760433,0.0408 0.600572,0.53662 0.808962,0.96567 0.911693,1.8771 0.124544,1.10495 0.07558,1.2358 -0.755932,2.02001 -0.802091,0.75647 -2.437859,1.40728 -3.537101,1.40728 -0.214112,0 -0.602057,-0.21276 -0.862099,-0.4728 z"
     id="path1406"
     inkscape:connector-curvature="0" />
  <rect
     style="opacity:0;fill:#ffffff;fill-opacity:1"
     id="rect1410"
     width="131"
     height="29.25"
     x="15.475235"
     y="99.583771"
     ry="2.875" />
  <rect
     style="opacity:0;fill:#ffffff;fill-opacity:1"
     id="rect1412"
     width="135.5"
     height="28.5"
     x="15.475235"
     y="99.583771"
     ry="2.875" />
  <path
     style="opacity:0;fill:#ffffff;fill-opacity:1;stroke-width:0.25"
     d="m 69.148906,126.16537 c -1.609457,-0.38226 -1.944147,-1.06706 -1.883332,-3.85343 0.114133,-5.22923 2.249498,-7.30206 3.026689,-2.93806 0.520242,2.92121 1.179733,3.67343 2.190434,2.49842 1.130338,-1.3141 2.575272,-6.26078 3.733106,-12.78015 0.801922,-4.51536 1.216156,-5.9218 2.028445,-6.88715 0.730388,-0.86801 1.302177,-0.95542 2.087926,-0.31916 0.478831,0.38774 0.545454,0.68251 0.536622,2.37426 -0.02902,5.55814 -3.160916,18.33859 -4.966008,20.26496 -1.384303,1.47732 -4.378446,2.2045 -6.753882,1.64031 z"
     id="path1414"
     inkscape:connector-curvature="0" />
  <path
     style="opacity:0;fill:#ffffff;fill-opacity:1;stroke-width:0.25"
     d="m 16.186034,126.03831 c -0.09039,-0.36015 -0.09062,-1.61406 -5.01e-4,-2.78646 0.299985,-3.9027 2.140596,-15.33553 3.047681,-18.93047 0.571881,-2.26647 2.071505,-3.56655 3.334361,-2.89069 0.440932,0.23598 0.523285,0.51388 0.523285,1.76582 0,0.81717 -0.23103,2.90719 -0.5134,4.64447 -0.282369,1.73729 -0.468437,3.20366 -0.413484,3.25861 0.05495,0.0549 1.398303,-1.33589 2.985222,-3.09076 4.638398,-5.12932 6.727109,-6.97826 7.533594,-6.66878 1.446038,0.5549 0.109015,4.39716 -2.471721,7.10309 -2.751266,2.88474 -2.862413,3.62199 -1.357342,9.00344 0.557078,1.99186 1.079817,4.44051 1.161643,5.44145 0.136389,1.66838 0.100473,1.87129 -0.431448,2.4375 -0.801591,0.85325 -1.394335,0.77517 -2.498663,-0.32916 -0.765084,-0.76509 -1.098096,-1.43385 -1.735296,-3.48485 -0.981447,-3.15907 -1.631154,-4.19338 -2.634105,-4.19338 -0.937397,0 -1.522296,0.84805 -2.724068,3.94965 -1.218099,3.14374 -2.66644,5.42535 -3.443951,5.42535 -0.1086,0 -0.271413,-0.29467 -0.361807,-0.65483 z"
     id="path1416"
     inkscape:connector-curvature="0" />
  <path
     style="opacity:0;fill:#ffffff;fill-opacity:1;stroke-width:0.25"
     d="m 16.186034,126.03831 c -0.09039,-0.36015 -0.09062,-1.61406 -5.01e-4,-2.78646 0.299985,-3.9027 2.140596,-15.33553 3.047681,-18.93047 0.571881,-2.26647 2.071505,-3.56655 3.334361,-2.89069 0.440932,0.23598 0.523285,0.51388 0.523285,1.76582 0,0.81717 -0.23103,2.90719 -0.5134,4.64447 -0.282369,1.73729 -0.468437,3.20366 -0.413484,3.25861 0.05495,0.0549 1.398303,-1.33589 2.985222,-3.09076 4.638398,-5.12932 6.727109,-6.97826 7.533594,-6.66878 1.446038,0.5549 0.109015,4.39716 -2.471721,7.10309 -2.751266,2.88474 -2.862413,3.62199 -1.357342,9.00344 0.557078,1.99186 1.079817,4.44051 1.161643,5.44145 0.136389,1.66838 0.100473,1.87129 -0.431448,2.4375 -0.801591,0.85325 -1.394335,0.77517 -2.498663,-0.32916 -0.765084,-0.76509 -1.098096,-1.43385 -1.735296,-3.48485 -0.981447,-3.15907 -1.631154,-4.19338 -2.634105,-4.19338 -0.937397,0 -1.522296,0.84805 -2.724068,3.94965 -1.218099,3.14374 -2.66644,5.42535 -3.443951,5.42535 -0.1086,0 -0.271413,-0.29467 -0.361807,-0.65483 z"
     id="path1418"
     inkscape:connector-curvature="0" />
  <path
     style="opacity:0;fill:#ffffff;fill-opacity:1;stroke-width:0.25"
     d="m 16.186034,126.03831 c -0.09039,-0.36015 -0.09062,-1.61406 -5.01e-4,-2.78646 0.299985,-3.9027 2.140596,-15.33553 3.047681,-18.93047 0.571881,-2.26647 2.071505,-3.56655 3.334361,-2.89069 0.440932,0.23598 0.523285,0.51388 0.523285,1.76582 0,0.81717 -0.23103,2.90719 -0.5134,4.64447 -0.282369,1.73729 -0.468437,3.20366 -0.413484,3.25861 0.05495,0.0549 1.398303,-1.33589 2.985222,-3.09076 4.638398,-5.12932 6.727109,-6.97826 7.533594,-6.66878 1.446038,0.5549 0.109015,4.39716 -2.471721,7.10309 -2.751266,2.88474 -2.862413,3.62199 -1.357342,9.00344 0.557078,1.99186 1.079817,4.44051 1.161643,5.44145 0.136389,1.66838 0.100473,1.87129 -0.431448,2.4375 -0.801591,0.85325 -1.394335,0.77517 -2.498663,-0.32916 -0.765084,-0.76509 -1.098096,-1.43385 -1.735296,-3.48485 -0.981447,-3.15907 -1.631154,-4.19338 -2.634105,-4.19338 -0.937397,0 -1.522296,0.84805 -2.724068,3.94965 -1.218099,3.14374 -2.66644,5.42535 -3.443951,5.42535 -0.1086,0 -0.271413,-0.29467 -0.361807,-0.65483 z"
     id="path1420"
     inkscape:connector-curvature="0" />
  <rect
     style="opacity:0;fill:#ffffff;fill-opacity:1"
     id="rect1422"
     width="135.5"
     height="28.5"
     x="15.475235"
     y="99.583771"
     ry="2.875" />
</svg>
